<svg id="Camada_1" data-name="Camada 1" xmlns="http://www.w3.org/2000/svg" viewBox="0 0 541.78 380.71"><defs><style>.cls-1{fill:#ecc47e;stroke:#1d1d1b;stroke-width:8px;}.cls-1,.cls-10,.cls-2,.cls-3,.cls-4,.cls-5,.cls-6,.cls-7,.cls-8{stroke-miterlimit:34.25;}.cls-2{fill:#845151;}.cls-10,.cls-2,.cls-3,.cls-4,.cls-5,.cls-6,.cls-7,.cls-8{stroke:#000;}.cls-2,.cls-3,.cls-4,.cls-5,.cls-6,.cls-7,.cls-8{stroke-width:0.01px;}.cls-3{fill:#5a3535;}.cls-4{fill:#fa6931;}.cls-5{fill:#fc5327;}.cls-6{fill:#f0e0db;}.cls-7{fill:#dbc5bd;}.cls-8{fill:#c8c1c9;}.cls-10,.cls-11,.cls-12,.cls-13,.cls-15,.cls-16,.cls-9{isolation:isolate;}.cls-10,.cls-9{font-size:38.83px;font-family:MGillSans, Gill Sans;}.cls-9{fill:#ffcd02;}.cls-10{fill:none;stroke-width:0.75px;}.cls-12,.cls-13,.cls-15,.cls-16{font-size:28.34px;font-family:JuiceITC-Regular, Juice ITC;}.cls-12{letter-spacing:-0.02em;}.cls-13{letter-spacing:-0.02em;}.cls-14{letter-spacing:-0.01em;}.cls-16{letter-spacing:0.01em;}</style></defs><g id="Camada_1-2" data-name="Camada 1"><g id="SVGRepo_bgCarrier" data-name="SVGRepo bgCarrier"><path class="cls-1" d="M349,414c65,10,92.54,27.43,145-11,68.43-50.15,86.92-60.64,94-145,30-66-18.39-79.16-56-172-47.39-17.16-42-44-130-26-84.29,4.2-161.09-28.36-223.67,28.05C109.06,150.52,39,168,72,254c4.53,93.89,24.57,103.16,102.94,155.43C249,437,279,407,357,414" transform="translate(-59.59 -50.03)"/></g><g id="SVGRepo_iconCarrier" data-name="SVGRepo iconCarrier"><g id="progressive-webapps_apis_history-api" data-name="progressive-webapps apis history-api"><g id="manuscript"><path id="Shape" class="cls-2" d="M556.91,122.65V89.9a9.75,9.75,0,0,0-9.75-9.74H113.74A9.75,9.75,0,0,0,104,89.9V107a19,19,0,0,0,6.81,14.34A25.34,25.34,0,0,1,112,157.18c-.38.4-.77.8-1.18,1.18A19,19,0,0,0,104,172.7v1.08a19,19,0,0,0,2.41,9.33,19.55,19.55,0,0,1,0,18.8,19,19,0,0,0-2.41,9.32V372.45a9.75,9.75,0,0,0,9.75,9.74H379.91a10.55,10.55,0,0,0,8.94-4.71,13.9,13.9,0,0,1,24.15,0,10.6,10.6,0,0,0,8.94,4.71H547.13a9.74,9.74,0,0,0,9.75-9.73h0V276.21A12.5,12.5,0,0,0,553,267a33,33,0,0,1,0-46.67l0,0a12.5,12.5,0,0,0,3.92-9.2V168.6a12.46,12.46,0,0,0-4-9.3,19,19,0,0,1-.48-26.87c.15-.16.32-.32.48-.48A12.45,12.45,0,0,0,556.91,122.65Z" transform="translate(-59.59 -50.03)"/><path id="Shape-2" class="cls-3" d="M552.91,132a12.46,12.46,0,0,0,4-9.3V89.9a9.75,9.75,0,0,0-9.75-9.74H523.78v9.42a12.46,12.46,0,0,1-4,9.3,19,19,0,0,0-.48,26.87l.48.48a12.46,12.46,0,0,1,4,9.3v42.52a12.58,12.58,0,0,1-3.92,9.2,33,33,0,0,0,0,46.65,12.58,12.58,0,0,1,3.92,9.2v96.24a9.75,9.75,0,0,1-9.75,9.74H388.91a10.6,10.6,0,0,1-8.94-4.71,13.9,13.9,0,0,0-24.15,0,10.55,10.55,0,0,1-8.94,4.71H104v23.36a9.75,9.75,0,0,0,9.75,9.74H379.91a10.55,10.55,0,0,0,8.94-4.71,13.9,13.9,0,0,1,24.15,0,10.6,10.6,0,0,0,8.94,4.71H547.13a9.74,9.74,0,0,0,9.75-9.73h0V276.21A12.5,12.5,0,0,0,553,267a33,33,0,0,1,0-46.67l0,0a12.58,12.58,0,0,0,3.92-9.2V168.61a12.49,12.49,0,0,0-4-9.31,19,19,0,0,1-.48-26.87c.15-.16.32-.32.48-.48Z" transform="translate(-59.59 -50.03)"/><path id="Shape-3" class="cls-4" d="M450.11,371.12l-.15.09a32.11,32.11,0,0,0-15.54,27.5v27.56a2.73,2.73,0,0,0,2.73,2.73h0l15.45-.1a2.74,2.74,0,0,0,2.72-2.73V398.61a11,11,0,0,1,5.37-9.46l.15-.09a31.92,31.92,0,0,0-.27-55,10.85,10.85,0,0,1-5.25-9.4V318H434.42v6.71a32.54,32.54,0,0,0,15.84,27.58,11,11,0,0,1-.15,18.82Z" transform="translate(-59.59 -50.03)"/><path id="Shape-4" class="cls-5" d="M460.58,334.11a10.85,10.85,0,0,1-5.25-9.4V318h-9.7v6.7a10.88,10.88,0,0,0,5.26,9.4,31.92,31.92,0,0,1,.26,55l-.14.09a11,11,0,0,0-5.38,9.46v27.71a2.6,2.6,0,0,1-2.58,2.6h-6.53a2.94,2.94,0,0,0,.51,0l15.58-.12a2.74,2.74,0,0,0,2.72-2.73V398.61a11,11,0,0,1,5.37-9.46l.15-.09a31.92,31.92,0,0,0-.27-55Z" transform="translate(-59.59 -50.03)"/><path id="Shape-5" class="cls-6" d="M495.29,134H445.73a5.93,5.93,0,0,0-4.93,2.62l-7.19,10.69a1.81,1.81,0,0,1-2.51.49,1.9,1.9,0,0,1-.49-.49l-7.19-10.69A5.93,5.93,0,0,0,418.5,134H361.36a35.58,35.58,0,0,0-30,16.47,35.55,35.55,0,0,0-30-16.47h-134a3.49,3.49,0,0,0-3.49,3.49h0V323.67a3.49,3.49,0,0,0,3.49,3.49h32.27a7.11,7.11,0,0,0,5.9-3.14l9.87-14.68a1.82,1.82,0,0,1,2.53-.47,2.1,2.1,0,0,1,.47.47L228.31,324a7.11,7.11,0,0,0,5.9,3.14H495.29a3.49,3.49,0,0,0,3.49-3.49V137.53A3.49,3.49,0,0,0,495.29,134Z" transform="translate(-59.59 -50.03)"/><path id="Shape-6" class="cls-6" d="M331.34,150.51a35.55,35.55,0,0,0-30-16.47H167.4a3.49,3.49,0,0,0-3.49,3.49h0V323.67a3.49,3.49,0,0,0,3.49,3.49h32.27a7.11,7.11,0,0,0,5.9-3.14l9.87-14.68a1.82,1.82,0,0,1,2.53-.47,2.1,2.1,0,0,1,.47.47L228.31,324a7.11,7.11,0,0,0,5.9,3.14h97.11Z" transform="translate(-59.59 -50.03)"/><path id="Shape-7" class="cls-7" d="M495.29,134H483.63V299.47A13.64,13.64,0,0,1,470,313.1H221L228.33,324a7.11,7.11,0,0,0,5.9,3.14H495.29a3.49,3.49,0,0,0,3.49-3.49V137.53A3.49,3.49,0,0,0,495.29,134Z" transform="translate(-59.59 -50.03)"/><path id="Shape-8" class="cls-7" d="M163.91,313.1v10.57a3.49,3.49,0,0,0,3.49,3.49h32.27a7.11,7.11,0,0,0,5.9-3.14l7.34-10.92Z" transform="translate(-59.59 -50.03)"/><path id="Shape-9" class="cls-7" d="M163.91,313.1v10.57a3.49,3.49,0,0,0,3.49,3.49h32.27a7.11,7.11,0,0,0,5.9-3.14l7.34-10.92Z" transform="translate(-59.59 -50.03)"/><path id="Shape-10" class="cls-7" d="M316.19,137.3V299.47a13.63,13.63,0,0,1-13.63,13.63H221L228.33,324a7.09,7.09,0,0,0,5.9,3.14h97.12V150.51A35.8,35.8,0,0,0,316.19,137.3Z" transform="translate(-59.59 -50.03)"/><g id="Group"><path id="Shape-11" class="cls-8" d="M415,193.61H369.53A6.82,6.82,0,1,1,369,180h46a6.82,6.82,0,1,1,.52,13.63Z" transform="translate(-59.59 -50.03)"/><path id="Shape-12" class="cls-8" d="M415,269.56H369.53a6.82,6.82,0,1,1,0-13.64H415a6.82,6.82,0,0,1,0,13.64Z" transform="translate(-59.59 -50.03)"/><path id="Shape-13" class="cls-8" d="M448.91,193.61H438a6.82,6.82,0,1,1-.52-13.63h11.42a6.82,6.82,0,1,1,.52,13.63Z" transform="translate(-59.59 -50.03)"/><path id="Shape-14" class="cls-8" d="M430.81,219.3h-15.3a6.82,6.82,0,1,1,0-13.64h15.3a6.82,6.82,0,0,1,0,13.64Z" transform="translate(-59.59 -50.03)"/><path id="Shape-15" class="cls-8" d="M392.25,219.3H369.83a6.82,6.82,0,1,1,0-13.64h22.42a6.82,6.82,0,0,1,0,13.64Z" transform="translate(-59.59 -50.03)"/><path id="Shape-16" class="cls-8" d="M392.25,244.43H369.83a6.82,6.82,0,1,1,0-13.64h22.42a6.82,6.82,0,0,1,0,13.64Z" transform="translate(-59.59 -50.03)"/><path id="Shape-17" class="cls-8" d="M469.53,244.43H415a6.82,6.82,0,1,1,0-13.64h54.55a6.82,6.82,0,1,1,0,13.64Z" transform="translate(-59.59 -50.03)"/><path id="Shape-18" class="cls-8" d="M469.53,219.3H453.85a6.82,6.82,0,0,1,0-13.64h15.68a6.82,6.82,0,1,1,0,13.64Z" transform="translate(-59.59 -50.03)"/></g><text class="cls-9" transform="translate(108.5 125.59)">GBDX</text><text class="cls-10" transform="translate(108.5 125.59)">GBDX</text><g class="cls-11"><text class="cls-12" transform="translate(111.37 160.87) scale(0.41 1)">R</text><text class="cls-13" transform="translate(115.08 160.87) scale(0.41 1)">e<tspan class="cls-14" x="7.63" y="0">v</tspan></text><text class="cls-15" transform="translate(121.89 160.87) scale(0.41 1)">ol</text><text class="cls-16" transform="translate(127.39 160.87) scale(0.41 1)">t</text><text class="cls-15" transform="translate(130.9 160.87) scale(0.41 1)">a dos </text><text class="cls-12" transform="translate(150.15 160.87) scale(0.41 1)">R</text><text class="cls-15" transform="translate(153.89 160.87) scale(0.41 1)">obôs: A ba</text><text class="cls-16" transform="translate(187.08 160.87) scale(0.41 1)">t</text><text class="cls-15" transform="translate(190.58 160.87) scale(0.41 1)">alha cont</text><text class="cls-15" transform="translate(221.42 160.87) scale(0.41 1)">r</text><text class="cls-15" transform="translate(224.76 160.87) scale(0.41 1)">a Z3R0</text></g><g class="cls-11"><text class="cls-12" transform="translate(111.37 196.82) scale(0.41 1)">R</text><text class="cls-13" transform="translate(115.08 196.82) scale(0.41 1)">e<tspan class="cls-14" x="7.63" y="0">v</tspan></text><text class="cls-15" transform="translate(121.89 196.82) scale(0.41 1)">ol</text><text class="cls-16" transform="translate(127.39 196.82) scale(0.41 1)">t</text><text class="cls-15" transform="translate(130.9 196.82) scale(0.41 1)">a dos </text><text class="cls-12" transform="translate(150.15 196.82) scale(0.41 1)">R</text><text class="cls-15" transform="translate(153.89 196.82) scale(0.41 1)">obôs: A ba</text><text class="cls-16" transform="translate(187.08 196.82) scale(0.41 1)">t</text><text class="cls-15" transform="translate(190.58 196.82) scale(0.41 1)">alha cont</text><text class="cls-15" transform="translate(221.42 196.82) scale(0.41 1)">r</text><text class="cls-15" transform="translate(224.76 196.82) scale(0.41 1)">a Z3R0</text></g><g class="cls-11"><text class="cls-12" transform="translate(111.37 236.77) scale(0.41 1)">R</text><text class="cls-13" transform="translate(115.08 236.77) scale(0.41 1)">e<tspan class="cls-14" x="7.63" y="0">v</tspan></text><text class="cls-15" transform="translate(121.89 236.77) scale(0.41 1)">ol</text><text class="cls-16" transform="translate(127.39 236.77) scale(0.41 1)">t</text><text class="cls-15" transform="translate(130.9 236.77) scale(0.41 1)">a dos </text><text class="cls-12" transform="translate(150.15 236.77) scale(0.41 1)">R</text><text class="cls-15" transform="translate(153.89 236.77) scale(0.41 1)">obôs: A ba</text><text class="cls-16" transform="translate(187.08 236.77) scale(0.41 1)">t</text><text class="cls-15" transform="translate(190.58 236.77) scale(0.41 1)">alha cont</text><text class="cls-15" transform="translate(221.42 236.77) scale(0.41 1)">r</text><text class="cls-15" transform="translate(224.76 236.77) scale(0.41 1)">a Z3R0</text></g></g></g></g></g></svg>