<svg id="Camada_1" data-name="Camada 1" xmlns="http://www.w3.org/2000/svg" xmlns:xlink="http://www.w3.org/1999/xlink" viewBox="0 0 800 800"><defs><style>.cls-1{fill:#fafafc;}.cls-10,.cls-11,.cls-12,.cls-13,.cls-14,.cls-15,.cls-16,.cls-17,.cls-18,.cls-19,.cls-2,.cls-20,.cls-21,.cls-22,.cls-24,.cls-25,.cls-26,.cls-27,.cls-28,.cls-29,.cls-3,.cls-30,.cls-31,.cls-32,.cls-33,.cls-34,.cls-35,.cls-36,.cls-37,.cls-38,.cls-4,.cls-5,.cls-6,.cls-7,.cls-8,.cls-9{fill-rule:evenodd;}.cls-2{fill:url(#Gradiente_sem_nome);}.cls-19,.cls-3{fill:#333;}.cls-10,.cls-11,.cls-12,.cls-13,.cls-14,.cls-15,.cls-16,.cls-17,.cls-18,.cls-19,.cls-23,.cls-25,.cls-26,.cls-27,.cls-28,.cls-29,.cls-30,.cls-31,.cls-32,.cls-33,.cls-34,.cls-35,.cls-36,.cls-37,.cls-38,.cls-4,.cls-5,.cls-6,.cls-7,.cls-8,.cls-9{stroke:#333;}.cls-10,.cls-11,.cls-12,.cls-13,.cls-14,.cls-15,.cls-16,.cls-17,.cls-18,.cls-19,.cls-20,.cls-23,.cls-25,.cls-26,.cls-27,.cls-28,.cls-29,.cls-30,.cls-31,.cls-32,.cls-33,.cls-34,.cls-35,.cls-36,.cls-37,.cls-38,.cls-4,.cls-5,.cls-6,.cls-7,.cls-8,.cls-9{stroke-miterlimit:10.42;stroke-width:2.6px;}.cls-4{fill:url(#Gradiente_sem_nome_2);}.cls-5{fill:url(#Gradiente_sem_nome_3);}.cls-6{fill:#8aa4b7;}.cls-7{fill:#676767;}.cls-8{fill:url(#Gradiente_sem_nome_4);}.cls-9{fill:url(#Gradiente_sem_nome_5);}.cls-10{fill:url(#Gradiente_sem_nome_6);}.cls-11{fill:#5b69ef;}.cls-12{fill:url(#Gradiente_sem_nome_7);}.cls-13{fill:url(#Gradiente_sem_nome_8);}.cls-14{fill:url(#Gradiente_sem_nome_9);}.cls-15{fill:url(#Gradiente_sem_nome_10);}.cls-16{fill:url(#Gradiente_sem_nome_11);}.cls-17{fill:#89bbe8;}.cls-18{fill:#f2d55a;}.cls-20{fill:#f3a012;stroke:#010101;}.cls-21{fill:#fbff00;}.cls-22{fill:url(#Gradiente_sem_nome_12);}.cls-23{fill:none;}.cls-24{fill:url(#Gradiente_sem_nome_13);}.cls-25{fill:url(#Gradiente_sem_nome_14);}.cls-26{fill:#f7f3c6;}.cls-27{fill:url(#Gradiente_sem_nome_15);}.cls-28{fill:url(#Gradiente_sem_nome_16);}.cls-29{fill:url(#Gradiente_sem_nome_17);}.cls-30{fill:url(#Gradiente_sem_nome_18);}.cls-31{fill:url(#Gradiente_sem_nome_19);}.cls-32{fill:url(#Gradiente_sem_nome_20);}.cls-33{fill:url(#Gradiente_sem_nome_21);}.cls-34{fill:url(#Gradiente_sem_nome_22);}.cls-35{fill:url(#Gradiente_sem_nome_23);}.cls-36{fill:url(#Gradiente_sem_nome_24);}.cls-37{fill:url(#Gradiente_sem_nome_25);}.cls-38{fill:url(#Gradiente_sem_nome_26);}</style><linearGradient id="Gradiente_sem_nome" x1="-696.77" y1="1.49" x2="-696.13" y2="2.25" gradientTransform="translate(456077.03 -649.82) scale(654.34 550.69)" gradientUnits="userSpaceOnUse"><stop offset="0" stop-color="#fff"/><stop offset="1" stop-color="#f3f3f3"/></linearGradient><linearGradient id="Gradiente_sem_nome_2" x1="-694.01" y1="3.74" x2="-693.47" y2="4.24" gradientTransform="translate(134316.8 -427.2) scale(192.96 206.79)" gradientUnits="userSpaceOnUse"><stop offset="0" stop-color="#fff"/><stop offset="1" stop-color="#cdcccc"/></linearGradient><linearGradient id="Gradiente_sem_nome_3" x1="-692.83" y1="4.1" x2="-691.68" y2="4.98" gradientTransform="translate(96010.42 -492.49) scale(137.86 179.12)" gradientUnits="userSpaceOnUse"><stop offset="0" stop-color="#e6e6e5"/><stop offset="1" stop-color="#b4b4b4"/></linearGradient><linearGradient id="Gradiente_sem_nome_4" x1="-682.96" y1="16.18" x2="-682" y2="17.22" gradientTransform="translate(33419.18 -333.56) scale(48.05 44.78)" xlink:href="#Gradiente_sem_nome_3"/><linearGradient id="Gradiente_sem_nome_5" x1="-680.35" y1="29.8" x2="-679.56" y2="31.15" gradientTransform="translate(28726.96 -301.38) scale(41.26 24.15)" xlink:href="#Gradiente_sem_nome_3"/><linearGradient id="Gradiente_sem_nome_6" x1="-671.57" y1="30.21" x2="-671.14" y2="30.71" gradientTransform="translate(19284.17 -301.38) scale(27.67 24.15)" xlink:href="#Gradiente_sem_nome_3"/><linearGradient id="Gradiente_sem_nome_7" x1="-688.44" y1="16.66" x2="-687.44" y2="16.66" gradientTransform="translate(52733.87 -347.39) scale(75.72 44.78)" xlink:href="#Gradiente_sem_nome"/><linearGradient id="Gradiente_sem_nome_8" x1="-682.97" y1="19.06" x2="-682.07" y2="20.19" gradientTransform="translate(33419.18 -398.52) scale(48.05 37.99)" xlink:href="#Gradiente_sem_nome_3"/><linearGradient id="Gradiente_sem_nome_9" x1="-680.49" y1="16.19" x2="-679.45" y2="17.15" gradientTransform="translate(28726.96 -371.55) scale(41.26 44.78)" xlink:href="#Gradiente_sem_nome_3"/><linearGradient id="Gradiente_sem_nome_10" x1="-671.57" y1="30.21" x2="-671.13" y2="30.71" gradientTransform="translate(19284.17 -349.69) scale(27.67 24.15)" xlink:href="#Gradiente_sem_nome_3"/><linearGradient id="Gradiente_sem_nome_11" x1="-688.44" y1="19.8" x2="-687.44" y2="19.8" gradientTransform="translate(52733.87 -413.91) scale(75.72 37.74)" xlink:href="#Gradiente_sem_nome"/><linearGradient id="Gradiente_sem_nome_12" x1="-682.09" y1="17.49" x2="-682.55" y2="18.43" gradientTransform="translate(33366.81 -418.64) scale(48.3 41.26)" gradientUnits="userSpaceOnUse"><stop offset="0" stop-color="#fdfeff" stop-opacity="0"/><stop offset="0.91" stop-color="#fdfeff" stop-opacity="0.91"/><stop offset="1" stop-color="#fdfeff"/></linearGradient><linearGradient id="Gradiente_sem_nome_13" x1="-682.11" y1="17.37" x2="-682.57" y2="18.32" gradientTransform="translate(33456.37 -461.61) scale(48.3 41.51)" xlink:href="#Gradiente_sem_nome_12"/><linearGradient id="Gradiente_sem_nome_14" x1="-695.07" y1="5.35" x2="-694.67" y2="6.15" gradientTransform="translate(192003.05 -593.42) scale(275.72 137.86)" xlink:href="#Gradiente_sem_nome"/><linearGradient id="Gradiente_sem_nome_15" x1="-689.37" y1="5.9" x2="-688.12" y2="6.73" gradientTransform="translate(57321.87 -494.58) scale(82.77 123.77)" xlink:href="#Gradiente_sem_nome_3"/><linearGradient id="Gradiente_sem_nome_16" x1="-694" y1="7.47" x2="-693.73" y2="8.01" gradientTransform="translate(139225.08 -428.44) scale(200 99.87)" xlink:href="#Gradiente_sem_nome"/><linearGradient id="Gradiente_sem_nome_17" x1="-683.04" y1="16.19" x2="-682.08" y2="17.22" gradientTransform="translate(33253.1 -161.49) scale(48.3 44.78)" xlink:href="#Gradiente_sem_nome_3"/><linearGradient id="Gradiente_sem_nome_18" x1="-680.35" y1="29.8" x2="-679.55" y2="31.16" gradientTransform="translate(28386.08 -129.3) scale(41.26 24.15)" xlink:href="#Gradiente_sem_nome_3"/><linearGradient id="Gradiente_sem_nome_19" x1="-671.57" y1="30.21" x2="-671.13" y2="30.71" gradientTransform="translate(18943.29 -129.3) scale(27.67 24.15)" xlink:href="#Gradiente_sem_nome_3"/><linearGradient id="Gradiente_sem_nome_20" x1="-688.44" y1="16.79" x2="-687.44" y2="16.79" gradientTransform="translate(52392.74 -176.88) scale(75.72 44.53)" xlink:href="#Gradiente_sem_nome"/><linearGradient id="Gradiente_sem_nome_21" x1="-683.07" y1="19.2" x2="-682.18" y2="20.34" gradientTransform="translate(33253.1 -228) scale(48.3 37.74)" xlink:href="#Gradiente_sem_nome_3"/><linearGradient id="Gradiente_sem_nome_22" x1="-680.5" y1="16.19" x2="-679.46" y2="17.15" gradientTransform="translate(28386.08 -199.22) scale(41.26 44.78)" xlink:href="#Gradiente_sem_nome_3"/><linearGradient id="Gradiente_sem_nome_23" x1="-671.57" y1="30.21" x2="-671.14" y2="30.71" gradientTransform="translate(18943.29 -177.35) scale(27.67 24.15)" xlink:href="#Gradiente_sem_nome_3"/><linearGradient id="Gradiente_sem_nome_24" x1="-688.44" y1="19.63" x2="-687.44" y2="19.63" gradientTransform="translate(52392.74 -240.03) scale(75.72 37.99)" xlink:href="#Gradiente_sem_nome"/><linearGradient id="Gradiente_sem_nome_25" x1="-647.32" y1="6.42" x2="-643.09" y2="6.92" gradientTransform="translate(9198.13 -229.48) scale(13.84 116.98)" xlink:href="#Gradiente_sem_nome_3"/><linearGradient id="Gradiente_sem_nome_26" x1="-693.05" y1="9.34" x2="-692.34" y2="10.75" gradientTransform="translate(105112.32 -295.94) scale(151.45 75.72)" xlink:href="#Gradiente_sem_nome"/></defs><g id="Camada_1-2" data-name="Camada 1"><g id="SVGRepo_bgCarrier" data-name="SVGRepo bgCarrier"><path class="cls-1" d="M400,0h0C620.91,0,800,179.09,800,400h0c0,220.91-179.09,400-400,400h0C179.09,800,0,620.91,0,400H0C0,179.09,179.09,0,400,0Z"/></g><g id="SVGRepo_iconCarrier" data-name="SVGRepo iconCarrier"><path class="cls-2" d="M352.2,622.39a2.29,2.29,0,0,1-1.26-.25l-41.25-10.32a1.91,1.91,0,0,1-1-.5l-27.17-13.58v5a4.77,4.77,0,0,1-2.77,4.53l-13.83,6.79a5.36,5.36,0,0,1-4.53,0l-137.87-68.9a4.74,4.74,0,0,1-2.77-4.53V503.14L74.21,480.5a4.73,4.73,0,0,1-2.76-4.5V420.88a4.77,4.77,0,0,1,2.76-4.53L94.84,406a5.28,5.28,0,0,1,4.53,0l31.45,15.85,5.28-2.77a5.36,5.36,0,0,1,4.53,0l2.51,1.26,32.21-41-4.53-2.26a4.77,4.77,0,0,1-2.77-4.53V295.09l-14.34-7.29a4.77,4.77,0,0,1-2.77-4.53V173.08a4.77,4.77,0,0,1,2.77-4.53l193-96.35a5.33,5.33,0,0,1,4.52,0l107.93,54.09,4.53-2.26a5.28,5.28,0,0,1,4.53,0L551,165.28a4.77,4.77,0,0,1,2.77,4.53v65.66l107.42,53.84a4.74,4.74,0,0,1,2.77,4.53v31.44l17.86,9.06c.25.25.76.5,1,.75L724,369.56a4.54,4.54,0,0,1,1.76,3.77v10.32a4.77,4.77,0,0,1-2.77,4.53L695.35,402a7.41,7.41,0,0,1-2.27.51,4.86,4.86,0,0,1-3-1l-26.41-19.87V391.7l17.86,11.57,40.75,13.59a5.14,5.14,0,0,1,3.53,4.78V432a4.77,4.77,0,0,1-2.77,4.53l-27.67,13.83a7.34,7.34,0,0,1-2.27.51,2.29,2.29,0,0,1-1.26-.25L650.59,440.3a1.91,1.91,0,0,1-1-.5l-39.75-19.88-2,1c-.5.5-.76,1-1.51,1.26a5.09,5.09,0,0,1-2.77.75,7.56,7.56,0,0,1-2.26-.5l-47.8-23.9V404a4.74,4.74,0,0,1-2.77,4.52l-193,96.36a5.36,5.36,0,0,1-4.53,0L325.52,491a4.77,4.77,0,0,1-2.76-4.53V481a4.38,4.38,0,0,1-1.76.25,7.34,7.34,0,0,1-2.27-.51l-27.67-13.83a4.77,4.77,0,0,1-2.77-4.53v-3.77l-11.07-5.54a4.74,4.74,0,0,1-2.76-4.53V427.92L212.83,398,191.7,424.4l100.38,50.07a4.72,4.72,0,0,1,2.76,4.52v4.53l45.54,22.64c.25.26.75.51,1,.76l41.26,34.46a4.56,4.56,0,0,1,1.76,3.78v10.31a4.74,4.74,0,0,1-2.76,4.53L354,573.84a7.63,7.63,0,0,1-2.26.5,4.86,4.86,0,0,1-3-1L308,542.9l-13.33-4.78v7.8l45.28,29.18,40.76,13.59a5.13,5.13,0,0,1,3.52,4.78v10.31a4.74,4.74,0,0,1-2.77,4.53l-27.67,13.84c0,.25-.75.25-1.51.25Z"/><path class="cls-3" d="M348.68,76.73,369.31,87l6.79,3.53,27.67,13.83L458.87,132l6.79-3.53,83,41.26V238.7l110.19,55.1v34.5l20.63,10.32,41.25,34.46V383.4l-27.67,13.83-34.21-26.16V394l20.65,13.3,41.25,13.83v10.32l-27.67,13.83L651.82,435l-42-20.88-6.29,3v.75L548.44,390.2V404l-193,96.35L327.8,486.54V472.7l-6.8-3.52V476l-27.68-13.83v-6.79l-13.83-6.8v-23.9l-68.18-33.2L183.9,425.91l105.91,52.83v7.55l48.3,24.15,41.26,34.47v10.31L351.7,569.06l-41.26-30.95-20.63-7.29v17.61l48.3,30.94,41.26,13.84v10.31L351.7,617.36,310.44,607l-34-17.1V603l-13.84,6.79L124.78,540.88V500.13l-48-23.9v-55.1l20.63-10.31,33.71,16.85,7.55-3.77,6,3,38.75-49.06-10.32-5V292.08L156,283.52V173.08Zm0-10.06a9.86,9.86,0,0,0-4.53,1l-192.7,96.61a10,10,0,0,0-5.54,9.05V283.52a10.49,10.49,0,0,0,5.54,9.06L163,298.36v74.72a9.85,9.85,0,0,0,4.78,8.56l-25.91,32.95a12.88,12.88,0,0,0-3.27-.5,9.86,9.86,0,0,0-4.53,1l-3,1.51-29.18-14.84a10.64,10.64,0,0,0-9.06,0L72.2,412.08a10.49,10.49,0,0,0-5.53,9.05v55.1a10.49,10.49,0,0,0,5.53,9L115,506.67v34.46a10.5,10.5,0,0,0,5.53,9.06l137.86,68.93a10.64,10.64,0,0,0,9.06,0l13.84-6.79a10,10,0,0,0,5-6l20.38,10.06c.75.25,1.25.51,2,.76l41.26,10.31a7.89,7.89,0,0,0,2.51.25,9.86,9.86,0,0,0,4.53-1l27.67-13.84a10,10,0,0,0,5.54-9.06V593.46a10.06,10.06,0,0,0-6.79-9.56L361,576.35l23.64-11.82a10,10,0,0,0,5.54-9.06V545.16a10.31,10.31,0,0,0-3.52-7.8L354,510.19a6.42,6.42,0,0,0,2,.25,9.86,9.86,0,0,0,4.53-1l193-96.35a9.83,9.83,0,0,0,5.28-6.54l40.76,20.38a10.38,10.38,0,0,0,9.81-.5,4.88,4.88,0,0,0,1.26-1L647.8,444c.75.25,1.26.5,2,.75l41.26,10.31a7.34,7.34,0,0,0,2.51.26,9.86,9.86,0,0,0,4.53-1l27.68-13.84a10,10,0,0,0,5.53-9.05v-10.3a10.06,10.06,0,0,0-6.79-9.56L702.14,404l23.65-11.83a10,10,0,0,0,5.53-9.06V372.83a10.31,10.31,0,0,0-3.52-7.8l-42-34.21a5.52,5.52,0,0,0-2-1.26L668.68,322V293.58a10.48,10.48,0,0,0-5.54-9.05L558.49,232.2V169.81a10.52,10.52,0,0,0-5.53-9.06L470.44,119.5a10.64,10.64,0,0,0-9.06,0l-2.26,1.25-50.57-25.4L380.88,81.51,374.09,78,353.46,67.67A10.26,10.26,0,0,0,348.68,66.67ZM200,422.64l14.59-18.36,55.1,26.91v17.62a10.49,10.49,0,0,0,5.53,9.05l8.3,4v.75a4.84,4.84,0,0,0,.25,2l-83.77-42Zm100.38,57.61V479a4.84,4.84,0,0,0-.25-2l16.6,8.3c.5.25.75.51,1.26.51v.75a9,9,0,0,0,.5,2.77l-18.11-9.06Z"/><path class="cls-4" d="M548.68,404l-193,96.35V390.19l193-96.61Z"/><path class="cls-5" d="M507.17,231.7V341.89L645,410.82V300.63Z"/><path class="cls-6" d="M645,300.63V410.82L658.87,404V293.58Z"/><path class="cls-6" d="M507.17,231.7,521,224.91l137.86,68.67L645,300.63Z"/><path class="cls-7" d="M521,251.82l-27.68,13.59L603.77,320.5l27.42-13.58Z"/><path class="cls-7" d="M452.08,245.53l-20.63,10.32,82.76,41.26,20.63-10.32Z"/><path class="cls-7" d="M431.45,255.85v55.09l82.76,41.26V297.11Z"/><path class="cls-7" d="M493.33,266.16v96.36l110.44,55.09V321.26Z"/><path class="cls-7" d="M631.19,306.92,603.77,320.5v96.61l27.42-13.84Z"/><path class="cls-8" d="M603.77,390.19v20.63L651.82,435V421.13Z"/><path class="cls-9" d="M651.82,421.13V435l41.26,10.31V435Z"/><path class="cls-10" d="M693.08,435v10.31l27.67-13.83V421.13Z"/><path class="cls-11" d="M679.5,407.3l-27.68,13.83L693.08,435l27.67-13.84Z"/><path class="cls-12" d="M631.19,376.35l-27.42,13.84,48.05,30.94L679.5,407.3Z"/><path class="cls-13" d="M603.77,328.05v20.63L651.82,366V352.2Z"/><path class="cls-14" d="M651.82,352.2V366l41.26,31V386.67Z"/><path class="cls-15" d="M693.08,386.67V397l27.67-13.84V372.83Z"/><path class="cls-16" d="M631.19,314.47l-27.42,13.58,48.05,24.15,27.68-13.84Z"/><path class="cls-11" d="M679.5,338.36,651.82,352.2l41.26,34.47,27.67-13.84Z"/><path class="cls-7" d="M173.08,176.6V372.83L300.63,435V238.49Z"/><path class="cls-7" d="M252.33,221.38v99.88L280,338.36V448.81L348.68,483V269.69Z"/><path class="cls-7" d="M369.56,87,180.13,183.4l165.28,82.76,189.43-96.35Z"/><path class="cls-17" d="M156,173.08,348.68,76.73l110.44,55.09-193,96.36Z"/><path class="cls-18" d="M348.68,104.4l27.67-13.83L404,104.4,376.35,118Z"/><path class="cls-7" d="M348.68,283.27l193-96.35V393.46l-193,96.6Z"/><path class="cls-7" d="M211.07,173.08l27.42,13.84L376.35,118l-27.67-13.6Z"/><path class="cls-7" d="M348.68,131.82l20.88-10.31,6.79-3.52L348.68,104.4Z"/><path class="cls-19" d="M335.09,138.62l6.8-3.27,13.83-7L335.09,118Z"/><path class="cls-7" d="M335.09,118l20.63,10.31,6.8-3.27-20.63-10.31Z"/><path class="cls-19" d="M321.26,145.66l6.79-3.52,13.84-6.79L321.26,125Z"/><path class="cls-7" d="M321.26,125l20.63,10.32,6.79-3.53-20.63-10.31Z"/><path class="cls-19" d="M307.42,152.45l7.05-3.52,13.58-6.79-20.63-10.32Z"/><path class="cls-7" d="M307.42,131.82l20.63,10.32,7-3.52L314.47,128.3Z"/><path class="cls-19" d="M293.58,159.5l7.05-3.53,13.84-7-20.89-10.31Z"/><path class="cls-7" d="M293.58,138.62l20.89,10.31,6.79-3.27-20.63-10.31Z"/><path class="cls-19" d="M280,166.29l6.79-3.52,13.84-6.8L280,145.66Z"/><path class="cls-7" d="M280,145.66,300.63,156l6.79-3.52-20.63-10.31Z"/><path class="cls-19" d="M266.16,173.08l6.8-3.27,13.83-7-20.63-10.32Z"/><path class="cls-7" d="M266.16,152.45l20.63,10.32,6.79-3.27L273,148.93Z"/><path class="cls-19" d="M252.33,180.13l7-3.53L273,169.81,252.33,159.5Z"/><path class="cls-7" d="M252.33,159.5,273,169.81l7-3.52L259.37,156Z"/><path class="cls-19" d="M238.49,186.92l7-3.52,13.84-6.8-20.88-10.31Z"/><path class="cls-7" d="M238.49,166.29l20.88,10.31,6.79-3.52-20.63-10.31Z"/><path class="cls-19" d="M224.91,193.71l6.79-3.27,13.83-7-20.62-10.32Z"/><path class="cls-7" d="M224.91,173.08l20.62,10.32,6.8-3.27L231.7,169.81Z"/><path class="cls-20" d="M376.35,331.57v41.26l48.3-24.15V307.42Z"/><path class="cls-21" d="M410.82,341.89V314.47l-34.47,17.1v27.68Z"/><path class="cls-22" d="M424.65,348.68V307.42l-34.46,17.36-13.84,6.79"/><path class="cls-23" d="M376.35,331.57v41.26l48.3-24.15V307.42Z"/><path class="cls-20" d="M465.91,286.79v41.26l48.3-23.9V262.64Z"/><path class="cls-21" d="M500.38,297.11V269.69l-34.47,17.1v27.68Z"/><path class="cls-24" d="M514.21,304.15V262.64L479.75,280l-13.84,6.79"/><path class="cls-23" d="M465.91,286.79v41.26l48.3-23.9V262.64Z"/><path class="cls-17" d="M266.16,310.94V228.18L156,173.08V283.27L293.58,352.2V462.39l27.68,13.84V366l27.42,13.83V352.2Z"/><path class="cls-6" d="M548.68,404l-193,96.35V390.19l193-96.61Z"/><path class="cls-6" d="M328.05,376.35V486.54l27.67,13.84V390.19Z"/><path class="cls-6" d="M548.68,252.33l-193,96.35V266.16l193-96.35Z"/><path class="cls-25" d="M273,224.91,466,128.3l82.77,41.51-193,96.35Z"/><path class="cls-26" d="M397,217.86,505,170l-25.25,34.28-55.1,27.42Z"/><path class="cls-27" d="M273,224.91v82.51l82.76,41.26V266.16Z"/><path class="cls-28" d="M355.72,390.19l193-96.61-7-3.27-193,96.36Z"/><path class="cls-19" d="M207.55,335.09v34.47l27.67,13.58V348.68Z"/><path class="cls-7" d="M125,452.08v24.15L138.62,483V459.1Z"/><path class="cls-7" d="M214.59,338.36,125,452.08l13.59,7,89.56-113.71Z"/><path class="cls-7" d="M138.62,459.12V483l96.6-120.5V348.68l-7-3.27Z"/><path class="cls-7" d="M180.13,423.9l-27.68,13.84,110.19,55.09L290.31,479Z"/><path class="cls-7" d="M97.36,410.82,76.73,421.13l96.35,48.3,20.63-10.31Z"/><path class="cls-7" d="M76.73,421.13v55.1l96.35,48.3v-55.1Z"/><path class="cls-7" d="M152.45,438.24v96.6l110.19,55.1V493.33Z"/><path class="cls-7" d="M290.31,479l-27.67,13.84v96.35l27.67-13.83Z"/><path class="cls-29" d="M262.64,562.26v20.63L310.94,607V593.21Z"/><path class="cls-30" d="M310.94,593.21V607l41.26,10.32V607Z"/><path class="cls-31" d="M352.2,607v10.32l27.67-13.59V593.21Z"/><path class="cls-11" d="M338.36,579.62l-27.42,13.59L352.2,607l27.67-13.83Z"/><path class="cls-32" d="M290.31,548.68l-27.67,13.58,48.3,31,27.42-13.59Z"/><path class="cls-33" d="M262.64,500.38V521l48.3,17.1V524.53Z"/><path class="cls-34" d="M310.94,524.53v13.58l41.26,31.2V559Z"/><path class="cls-35" d="M352.2,559v10.32l27.67-13.84V545.16Z"/><path class="cls-36" d="M290.31,486.54l-27.67,13.84,48.3,24.15,27.42-13.84Z"/><path class="cls-11" d="M338.36,510.69l-27.42,13.84L352.2,559l27.67-13.83Z"/><path class="cls-17" d="M125,430.69V541.13l137.61,68.68V499.62Z"/><path class="cls-37" d="M262.64,499.62V609.81L276.48,603V492.83Z"/><path class="cls-38" d="M125,430.69l13.59-6.79,137.86,68.93-13.84,6.79Z"/><path class="cls-18" d="M183.4,186.92l27.67-13.84,27.42,13.84-27.42,13.83Z"/></g></g></svg>