<?xml version="1.0" encoding="utf-8"?>
<!-- Generator: Adobe Illustrator 26.0.0, SVG Export Plug-In . SVG Version: 6.00 Build 0)  -->
<svg version="1.1" id="Camada_1" xmlns="http://www.w3.org/2000/svg" xmlns:xlink="http://www.w3.org/1999/xlink" x="0px" y="0px"
	 viewBox="0 0 484.9 363.8" style="enable-background:new 0 0 484.9 363.8;" xml:space="preserve">
<style type="text/css">
	.st0{fill:#ECC47E;stroke:#B7B7B7;stroke-width:8;stroke-miterlimit:34.25;}
	.st1{fill:#845151;stroke:#000000;stroke-width:1.000000e-02;stroke-miterlimit:34.25;}
	.st2{fill:#5A3535;stroke:#000000;stroke-width:1.000000e-02;stroke-miterlimit:34.25;}
	.st3{fill:#FA6931;stroke:#000000;stroke-width:1.000000e-02;stroke-miterlimit:34.25;}
	.st4{fill:#FC5327;stroke:#000000;stroke-width:1.000000e-02;stroke-miterlimit:34.25;}
	.st5{fill:#F0E0DB;stroke:#000000;stroke-width:1.000000e-02;stroke-miterlimit:34.25;}
	.st6{fill:#DBC5BD;stroke:#000000;stroke-width:1.000000e-02;stroke-miterlimit:34.25;}
	.st7{fill:#C8C1C9;stroke:#000000;stroke-width:1.000000e-02;stroke-miterlimit:34.25;}
	.st8{fill:#FFCD02;}
	.st9{font-family:'MGillSans';}
	.st10{font-size:38.83px;}
	.st11{fill:none;stroke:#000000;stroke-width:0.75;stroke-miterlimit:34.25;}
	.st12{font-family:'JuiceITC-Regular';}
	.st13{font-size:28.34px;}
</style>
<g id="Camada_1-2">
	<g id="SVGRepo_bgCarrier">
		<path class="st0" d="M280.5,324.2c65,10,98.3,4.1,138.2-3.5c67-49.1,61.5-61.5,61.2-111.4c-0.2-19.8-7.1-39.9-6.6-43.1
			c7.7-49,16.3-34.8-11.7-122.5c-2.4-7.5-8.9-13.1-16.1-16.4c-35.7-16.7-36.8-17.1-117.9-16.1c-1.7,0-0.4-0.1-2.1,0
			C234.7,18.9,164.9-21.9,102.9,34C34.9,95.3-2.7,69,14.3,172.2c0.5,3.1-10.5,28.8-10.3,32c4.9,88.1,11.9,70.7,72.3,117.2
			c2.2,1.7,37.5,5.9,40.3,5.7c93.4-9.3,90.9-8.5,167.5-1.7"/>
	</g>
	<g id="SVGRepo_iconCarrier">
		<g id="progressive-webapps_apis_history-api">
			<g id="manuscript">
				<path id="Shape" class="st1" d="M472.4,57.5V24.7c0-5.4-4.4-9.7-9.8-9.7H29.2c-5.4,0-9.7,4.4-9.7,9.7v17.1
					c0.1,5.5,2.6,10.8,6.8,14.3c10.2,9.6,10.8,25.6,1.2,35.8c0,0,0,0,0,0c-0.4,0.4-0.8,0.8-1.2,1.2c-4.3,3.6-6.7,8.8-6.8,14.3v1.1
					c0,3.3,0.8,6.5,2.4,9.3c3.2,5.9,3.2,12.9,0,18.8c-1.6,2.8-2.4,6.1-2.4,9.3v161.2c0,5.4,4.4,9.7,9.8,9.7h266.2
					c3.6,0.1,7-1.7,8.9-4.7c3.8-6.7,12.3-9,19-5.2c2.2,1.2,4,3,5.2,5.2c2,3,5.4,4.8,8.9,4.7h125.2c5.4,0,9.7-4.4,9.8-9.7
					c0,0,0,0,0,0l0,0V211c0-3.5-1.4-6.8-3.9-9.2c-12.9-12.9-12.9-33.8,0-46.7c0,0,0,0,0,0l0,0c2.5-2.4,4-5.7,3.9-9.2v-42.5
					c0-3.5-1.4-6.9-4-9.3c-7.6-7.3-7.8-19.3-0.5-26.9c0,0,0,0,0,0c0.2-0.2,0.3-0.3,0.5-0.5C471,64.4,472.5,61,472.4,57.5z"/>
				<path id="Shape-2" class="st2" d="M468.4,66.8c2.6-2.4,4-5.8,4-9.3V24.7c0-5.4-4.4-9.7-9.8-9.7h-23.4v9.4c0,3.5-1.4,6.9-4,9.3
					c-7.6,7.3-7.8,19.3-0.5,26.9c0,0,0,0,0,0l0.5,0.5c2.6,2.4,4,5.8,4,9.3v42.5c0,3.5-1.4,6.8-3.9,9.2c-12.9,12.9-12.9,33.8,0,46.7
					c2.5,2.4,3.9,5.7,3.9,9.2v96.2c0,5.4-4.4,9.7-9.8,9.7H304.4c-3.6,0-6.9-1.7-8.9-4.7c-3.8-6.7-12.3-9-19-5.2
					c-2.2,1.2-4,3-5.2,5.2c-2,3-5.4,4.8-8.9,4.7H19.5v23.4c0,5.4,4.4,9.7,9.8,9.7h266.2c3.6,0.1,7-1.7,8.9-4.7
					c3.8-6.7,12.3-9,19-5.2c2.2,1.2,4,3,5.2,5.2c2,3,5.4,4.8,8.9,4.7h125.2c5.4,0,9.7-4.4,9.8-9.7c0,0,0,0,0,0l0,0V211
					c0-3.5-1.4-6.8-3.9-9.2c-12.9-12.9-12.9-33.8,0-46.7c0,0,0,0,0,0l0,0c2.5-2.4,3.9-5.7,3.9-9.2v-42.5c0-3.5-1.4-6.9-4-9.3
					c-7.6-7.3-7.8-19.3-0.5-26.9c0,0,0,0,0,0C468.1,67.1,468.3,66.9,468.4,66.8L468.4,66.8z"/>
				<path id="Shape-3" class="st3" d="M365.6,305.9l-0.1,0.1c-9.6,5.8-15.5,16.2-15.5,27.5v27.6c0,1.5,1.2,2.7,2.7,2.7c0,0,0,0,0,0
					l0,0l15.5-0.1c1.5,0,2.7-1.2,2.7-2.7v-27.6c0-3.9,2-7.5,5.4-9.5l0.1-0.1c15.1-9,20.1-28.6,11.1-43.8c-2.8-4.6-6.7-8.5-11.4-11.2
					c-3.3-2-5.3-5.6-5.2-9.4v-6.7h-20.9v6.7c0.1,11.3,6.1,21.8,15.8,27.6c5.2,3.2,6.8,10,3.6,15.1
					C368.4,303.7,367.1,305,365.6,305.9L365.6,305.9z"/>
				<path id="Shape-4" class="st4" d="M376.1,268.9c-3.3-2-5.3-5.6-5.2-9.4v-6.7h-9.7v6.7c0,3.8,2,7.4,5.3,9.4
					c15.2,8.9,20.4,28.4,11.5,43.7c-2.7,4.7-6.6,8.6-11.2,11.3l-0.1,0.1c-3.3,2-5.4,5.6-5.4,9.5v27.7c0,1.4-1.2,2.6-2.6,2.6H352
					c0.2,0,0.3,0,0.5,0l15.6-0.1c1.5,0,2.7-1.2,2.7-2.7v-27.5c0-3.9,2-7.5,5.4-9.5l0.1-0.1c15.1-9,20.1-28.6,11.1-43.8
					C384.7,275.5,380.8,271.6,376.1,268.9L376.1,268.9z"/>
				<path id="Shape-5" class="st5" d="M410.8,68.8h-49.6c-2,0-3.8,1-4.9,2.6l-7.2,10.7c-0.6,0.8-1.7,1-2.5,0.5
					c-0.2-0.1-0.4-0.3-0.5-0.5l-7.2-10.7c-1.1-1.6-2.9-2.6-4.9-2.6h-57.1c-12.2,0-23.5,6.2-30,16.5c-6.5-10.3-17.8-16.5-30-16.5
					h-134c-1.9,0-3.5,1.6-3.5,3.5c0,0,0,0,0,0l0,0v186.2c0,1.9,1.6,3.5,3.5,3.5h32.3c2.4,0,4.6-1.2,5.9-3.1l9.9-14.7
					c0.6-0.8,1.7-1,2.5-0.5c0.2,0.1,0.3,0.3,0.5,0.5l9.9,14.7c1.3,2,3.5,3.1,5.9,3.1h261.1c1.9,0,3.5-1.6,3.5-3.5V72.3
					C414.3,70.4,412.8,68.8,410.8,68.8C410.8,68.8,410.8,68.8,410.8,68.8z"/>
				<path id="Shape-6" class="st5" d="M246.8,85.3c-6.5-10.3-17.8-16.5-30-16.5H82.9c-1.9,0-3.5,1.6-3.5,3.5c0,0,0,0,0,0l0,0v186.1
					c0,1.9,1.6,3.5,3.5,3.5h32.3c2.4,0,4.6-1.2,5.9-3.1l9.9-14.7c0.6-0.8,1.7-1,2.5-0.5c0.2,0.1,0.3,0.3,0.5,0.5l9.9,14.7
					c1.3,2,3.5,3.1,5.9,3.1h97.1L246.8,85.3z"/>
				<path id="Shape-7" class="st6" d="M410.8,68.8h-11.7v165.5c0,7.5-6.1,13.6-13.6,13.6h-249l7.3,10.9c1.3,2,3.5,3.1,5.9,3.1h261.1
					c1.9,0,3.5-1.6,3.5-3.5V72.3C414.3,70.4,412.8,68.8,410.8,68.8C410.8,68.8,410.8,68.8,410.8,68.8z"/>
				<path id="Shape-8" class="st6" d="M79.4,247.9v10.6c0,1.9,1.6,3.5,3.5,3.5h32.3c2.4,0,4.6-1.2,5.9-3.1l7.3-10.9L79.4,247.9z"/>
				<path id="Shape-9" class="st6" d="M79.4,247.9v10.6c0,1.9,1.6,3.5,3.5,3.5h32.3c2.4,0,4.6-1.2,5.9-3.1l7.3-10.9L79.4,247.9z"/>
				<path id="Shape-10" class="st6" d="M231.7,72.1v162.2c0,7.5-6.1,13.6-13.6,13.6l0,0h-81.6l7.3,10.9c1.3,2,3.5,3.1,5.9,3.1h97.1
					V85.3C243.2,79.6,237.9,75,231.7,72.1z"/>
				<g id="Group">
					<path id="Shape-11" class="st7" d="M330.5,128.4H285c-3.8,0.3-7.1-2.4-7.4-6.2s2.4-7.1,6.2-7.4c0.2,0,0.5,0,0.7,0h46
						c3.8-0.2,6.9,2.8,7.1,6.5c0.2,3.8-2.8,6.9-6.5,7.1c0,0,0,0,0,0L330.5,128.4z"/>
					<path id="Shape-12" class="st7" d="M330.5,204.4H285c-3.8,0-6.8-3.1-6.8-6.8c0-3.8,3.1-6.8,6.8-6.8c0,0,0,0,0,0h45.5
						c3.8,0,6.8,3.1,6.8,6.8C337.3,201.3,334.3,204.4,330.5,204.4z"/>
					<path id="Shape-13" class="st7" d="M364.4,128.4h-10.9c-3.8,0.2-6.9-2.8-7.1-6.5c-0.2-3.8,2.8-6.9,6.5-7.1c0,0,0,0,0,0h11.4
						c3.8-0.2,6.9,2.8,7.1,6.5c0.2,3.8-2.8,6.9-6.5,7.1c0,0,0,0,0,0H364.4z"/>
					<path id="Shape-14" class="st7" d="M346.3,154.1H331c-3.8,0-6.8-3.1-6.8-6.8c0-3.8,3.1-6.8,6.8-6.8c0,0,0,0,0,0h15.3
						c3.8,0,6.8,3.1,6.8,6.8C353.1,151.1,350.1,154.1,346.3,154.1z"/>
					<path id="Shape-15" class="st7" d="M307.8,154.1h-22.4c-3.8,0-6.8-3.1-6.8-6.8c0-3.8,3.1-6.8,6.8-6.8c0,0,0,0,0,0h22.4
						c3.8,0,6.8,3.1,6.8,6.8C314.6,151.1,311.5,154.1,307.8,154.1z"/>
					<path id="Shape-16" class="st7" d="M307.8,179.2h-22.4c-3.8,0-6.8-3.1-6.8-6.8c0-3.8,3.1-6.8,6.8-6.8c0,0,0,0,0,0h22.4
						c3.8,0,6.8,3.1,6.8,6.8C314.6,176.2,311.5,179.2,307.8,179.2z"/>
					<path id="Shape-17" class="st7" d="M385,179.2h-54.5c-3.8,0-6.8-3.1-6.8-6.8c0-3.8,3.1-6.8,6.8-6.8c0,0,0,0,0,0h54.5
						c3.8,0,6.8,3.1,6.8,6.8C391.9,176.2,388.8,179.2,385,179.2C385.1,179.2,385.1,179.2,385,179.2L385,179.2z"/>
					<path id="Shape-18" class="st7" d="M385,154.1h-15.7c-3.8,0-6.8-3.1-6.8-6.8c0-3.8,3.1-6.8,6.8-6.8H385c3.8,0,6.8,3.1,6.8,6.8
						C391.9,151.1,388.8,154.1,385,154.1C385,154.1,385,154.1,385,154.1z"/>
				</g>
				<text transform="matrix(1 0 0 1 83.5989 110.4315)" class="st8 st9 st10">GBDX</text>
				<text transform="matrix(1 0 0 1 83.5989 110.4315)" class="st11 st9 st10">GBDX</text>
				<g>
					<text transform="matrix(0.41 0 0 1 86.469 145.7116)" class="st12 st13">R</text>
					<text transform="matrix(0.41 0 0 1 90.179 145.7116)" class="st12 st13">e</text>
					<text transform="matrix(0.41 0 0 1 93.3074 145.7116)" class="st12 st13">v</text>
					<text transform="matrix(0.41 0 0 1 96.989 145.7116)" class="st12 st13">ol</text>
					<text transform="matrix(0.41 0 0 1 102.489 145.7116)" class="st12 st13">t</text>
					<text transform="matrix(0.41 0 0 1 105.9988 145.7116)" class="st12 st13">a dos</text>
					<text transform="matrix(0.41 0 0 1 125.2488 145.7116)" class="st12 st13">R</text>
					<text transform="matrix(0.41 0 0 1 128.989 145.7116)" class="st12 st13">obôs: A ba</text>
					<text transform="matrix(0.41 0 0 1 162.179 145.7116)" class="st12 st13">t</text>
					<text transform="matrix(0.41 0 0 1 165.679 145.7116)" class="st12 st13">alha cont</text>
					<text transform="matrix(0.41 0 0 1 196.5188 145.7116)" class="st12 st13">r</text>
					<text transform="matrix(0.41 0 0 1 199.8592 145.7116)" class="st12 st13">a Z3R0</text>
				</g>
				<g>
					<text transform="matrix(0.41 0 0 1 86.469 181.6613)" class="st12 st13">R</text>
					<text transform="matrix(0.41 0 0 1 90.179 181.6613)" class="st12 st13">e</text>
					<text transform="matrix(0.41 0 0 1 93.3074 181.6613)" class="st12 st13">v</text>
					<text transform="matrix(0.41 0 0 1 96.989 181.6613)" class="st12 st13">ol</text>
					<text transform="matrix(0.41 0 0 1 102.489 181.6613)" class="st12 st13">t</text>
					<text transform="matrix(0.41 0 0 1 105.9988 181.6613)" class="st12 st13">a dos</text>
					<text transform="matrix(0.41 0 0 1 125.2488 181.6613)" class="st12 st13">R</text>
					<text transform="matrix(0.41 0 0 1 128.989 181.6613)" class="st12 st13">obôs: A ba</text>
					<text transform="matrix(0.41 0 0 1 162.179 181.6613)" class="st12 st13">t</text>
					<text transform="matrix(0.41 0 0 1 165.679 181.6613)" class="st12 st13">alha cont</text>
					<text transform="matrix(0.41 0 0 1 196.5188 181.6613)" class="st12 st13">r</text>
					<text transform="matrix(0.41 0 0 1 199.8592 181.6613)" class="st12 st13">a Z3R0</text>
				</g>
				<g>
					<text transform="matrix(0.41 0 0 1 86.469 221.6115)" class="st12 st13">R</text>
					<text transform="matrix(0.41 0 0 1 90.179 221.6115)" class="st12 st13">e</text>
					<text transform="matrix(0.41 0 0 1 93.3074 221.6115)" class="st12 st13">v</text>
					<text transform="matrix(0.41 0 0 1 96.989 221.6115)" class="st12 st13">ol</text>
					<text transform="matrix(0.41 0 0 1 102.489 221.6115)" class="st12 st13">t</text>
					<text transform="matrix(0.41 0 0 1 105.9988 221.6115)" class="st12 st13">a dos</text>
					<text transform="matrix(0.41 0 0 1 125.2488 221.6115)" class="st12 st13">R</text>
					<text transform="matrix(0.41 0 0 1 128.989 221.6115)" class="st12 st13">obôs: A ba</text>
					<text transform="matrix(0.41 0 0 1 162.179 221.6115)" class="st12 st13">t</text>
					<text transform="matrix(0.41 0 0 1 165.679 221.6115)" class="st12 st13">alha cont</text>
					<text transform="matrix(0.41 0 0 1 196.5188 221.6115)" class="st12 st13">r</text>
					<text transform="matrix(0.41 0 0 1 199.8592 221.6115)" class="st12 st13">a Z3R0</text>
				</g>
			</g>
		</g>
	</g>
</g>
</svg>
